<?xml version="1.0" encoding="UTF-8" standalone="no"?>
<!DOCTYPE svg PUBLIC "-//W3C//DTD SVG 1.1//EN" "http://www.w3.org/Graphics/SVG/1.1/DTD/svg11.dtd">
<svg width="100%" height="100%" viewBox="0 0 1024 1024" version="1.1" xmlns="http://www.w3.org/2000/svg" xmlns:xlink="http://www.w3.org/1999/xlink" xml:space="preserve" xmlns:serif="http://www.serif.com/" style="fill-rule:evenodd;clip-rule:evenodd;stroke-linejoin:round;stroke-miterlimit:2;">
    <g transform="matrix(0.469094,0,0,0.469094,17.858158,20.011877)">
        <path d="M1459.66,136.408C1470.15,140.441 1479.08,146.862 1483.53,157.484C1502.67,203.157 1462.34,350.146 1442.88,398.058C1414.12,468.866 1379.634,531.231 1318.17,578.708C1244,636 1194.46,647.504 1175.42,655.572C1242,656 1312,630 1322,620C1248,838 1114.58,962.631 975.991,1058.26C950.334,1076.06 922.701,1090.83 893.646,1102.28C880.599,1107.45 858,1116 840,1122C875.885,1120.89 916.981,1115.44 952,1108C962.386,1105.79 992,1098 1010,1092C1006.98,1100.21 974.011,1134.79 965.909,1142.99C885.284,1224.62 778.355,1273.82 673.333,1316.35C660.675,1321.5 647.856,1326.24 634.896,1330.58C620.015,1335.48 600.27,1340.64 587.205,1348.48C573.399,1374.24 562.246,1413.5 551.338,1441.13C539.881,1470.16 528.005,1498.21 517.038,1527.5C512.046,1541.55 507.404,1555.73 503.117,1570.02C498.439,1585.78 493.896,1606.57 486.259,1621.13C484.823,1623.86 475.594,1633.16 472.847,1635.4C445.372,1657.82 417.197,1678.99 388.614,1699.97C369.847,1714.01 351.788,1728.86 332.495,1742.21C321.089,1750.1 308.156,1751.15 312.276,1732.73C315.003,1720.53 318.661,1708.68 322.357,1696.72C330.932,1669.42 340.265,1642.38 350.344,1615.6C359.131,1593.312 372.705,1556.688 391.14,1509.529C405.28,1473.68 419.731,1437.954 434.491,1402.355C449.429,1366.722 466.129,1328.221 484.607,1287.666C652.309,919.605 968.661,366.212 1459.66,136.408Z" style="fill:url(#_Linear1);"/>
    </g>
    <defs>
        <linearGradient id="_Linear1" x1="0" y1="0" x2="1" y2="0" gradientUnits="userSpaceOnUse" gradientTransform="matrix(1148.167033,-1611.188372,2205.429069,1571.635567,311.492967,1747.596372)"><stop offset="0" style="stop-color:rgb(67,157,158);stop-opacity:1"/><stop offset="0.45" style="stop-color:rgb(96,175,176);stop-opacity:1"/><stop offset="1" style="stop-color:rgb(168,218,220);stop-opacity:1"/></linearGradient>
    </defs>
</svg>
