<?xml version="1.0" encoding="UTF-8" standalone="no"?>
<!DOCTYPE svg PUBLIC "-//W3C//DTD SVG 1.1//EN" "http://www.w3.org/Graphics/SVG/1.1/DTD/svg11.dtd">
<svg width="100%" height="100%" viewBox="0 0 1024 1024" version="1.1" xmlns="http://www.w3.org/2000/svg" xmlns:xlink="http://www.w3.org/1999/xlink" xml:space="preserve" xmlns:serif="http://www.serif.com/" style="fill-rule:evenodd;clip-rule:evenodd;stroke-linejoin:round;stroke-miterlimit:2;">
    <g transform="matrix(0.5,0,0,0.5,0,0)">
        <path d="M1452.5,550.107C1463.01,550.162 1467.72,554.639 1473.6,563.042C1538.97,657.002 1621.37,738.535 1681.27,836.218C1741.58,934.571 1744.68,1047.96 1682.44,1146.12C1659.71,1181.98 1629.29,1218.06 1587.25,1231.44C1582.89,1232.83 1578.67,1232.37 1574.92,1229.89C1571,1224.47 1573.31,1216.49 1576.36,1211.49C1584.4,1198.68 1592.06,1184.39 1599.38,1171.35C1653.02,1075.72 1661.39,966.194 1590.83,875.846C1578.36,859.872 1497.45,787.769 1470.3,765.178C1458,834 1368.17,1347.17 1368.17,1347.17C1355.31,1419.97 1343.43,1482.33 1284.81,1534.18C1187.49,1620.27 1027.13,1619.48 938.456,1521.16C904.364,1483.36 882.346,1426.5 886.364,1375.19C902.793,1165.41 1172.55,1087.31 1309.38,1245.23C1312.28,1235.054 1408.15,683.434 1425.38,612.331C1429.62,594.83 1434.11,574.653 1440.71,557.908C1442.45,553.517 1448.41,551.6 1452.5,550.107Z" style="fill:rgb(250,149,3);fill-rule:nonzero;"/>
    </g>
</svg>
