<svg xmlns="http://www.w3.org/2000/svg" xml:space="preserve" width="1024" height="1024" viewBox="59 104.5 1024 1024"><path d="M933.819 400.495c14.354-11.574 31.267-22.461 46.603-32.59 61.178-40.406 126.738-75.591 195.128-102.03 42.83-16.558 89.1-29.507 135.33-25.999 14.72 1.118 32.13 7.136 41.26 19.335 18.65 24.111 15.73 61.525 11.32 90.039-13.29 85.849-45.39 170.008-82.08 248.368-4.29 9.162-19.39 39.223-24.79 46.215-10.45 21.026-31.22 58.684-48.34 75.011-3.3 3.156-42.39 17.142-49.05 18.583-28.84 11.158-58.04 21.283-86.97 32.529a2203 2203 0 0 0-141.655 60.488c-6.218 2.898-28.946 12.778-32.635 16.812a967.4 967.4 0 0 1 273.1-44.454c-26.52 41.821-47.8 85.456-73.47 127.214-58.1 94.494-130.465 191.654-210.864 268.224-39.53 37.65-116.575 88.05-163.41 115.03a1328 1328 0 0 1-54.837 29.85c-41.252 21.26-87.468 42.56-116.667 80.22-35.306 45.53-59.785 99.48-77.132 154.14-1.567 4.96-3.271 10.56-5.133 15.39-2.495-5.63 4.174-16.07 5.644-24.5-1.804.44-.752 4.68-4.232 6.78-.752-3.03 3.607-25.89 4.505-31.11-8.544-2.06-23.519-14.91-35.075-20.7 7.916-30.64 26.595-90.34 29.461-118.6l-.202-10.74c-.8-4.55-.665-10.89-.758-15.71-.431-22.21-2.525-44.17-5.754-66.18-11.514-78.45-27.107-156.37-43.105-234-3.333-16.18-6.819-32.57-10.916-48.55 25.457 32.04 48.368 69.39 72.222 102.78 10.03 14.04 19.196 28.83 30.164 42.25-.848-18.47-9.45-49.7-12.675-69.54-6.223-38.27-10.087-74.22-11.578-112.843-3.936-102.004 45.316-174.936 102.141-254.016 15.232-21.197 42.155-59.024 59.337-77.177 5.211-7.738 20.663-24.806 27.364-31.926 29.216-31.041 60.596-61.563 91.863-90.495.868 64.277.993 132.227.329 196.528l.42 3.75.786.177 1.677-4.668c3.428-16.985 12.227-44.396 17.125-64.03 15.509-61.511 27.305-128.856 47.083-188.632 2.853-8.622 88.804-74.382 98.466-81.223" style="stroke:none;stroke-width:1;stroke-dasharray:none;stroke-linecap:butt;stroke-dashoffset:0;stroke-linejoin:miter;stroke-miterlimit:4;fill:#9bf0d1;fill-rule:nonzero;opacity:1" transform="matrix(.5 0 0 .5 59 104.5)"/><g transform="matrix(.5 0 0 .5 461.85 703.42)"><linearGradient id="SVGID_SVGID_Gradient7_44_52" x1="716.177" x2="919.003" y1="1623.26" y2="746.622" gradientUnits="userSpaceOnUse"><stop offset="0%" style="stop-color:#124a4e;stop-opacity:1"/><stop offset="100%" style="stop-color:#309d98;stop-opacity:1"/></linearGradient><path d="M897.94 847.256a967.4 967.4 0 0 1 273.1-44.454c-26.52 41.821-47.8 85.456-73.47 127.214-58.1 94.494-130.465 191.654-210.864 268.224-39.53 37.65-116.575 88.05-163.41 115.03a1328 1328 0 0 1-54.837 29.85c-41.252 21.26-87.468 42.56-116.667 80.22-35.306 45.53-59.785 99.48-77.132 154.14-1.567 4.96-3.271 10.56-5.133 15.39-2.495-5.63 4.174-16.07 5.644-24.5-1.804.44-.752 4.68-4.232 6.78-.752-3.03 3.607-25.89 4.505-31.11-8.544-2.06-23.519-14.91-35.075-20.7 7.916-30.64 26.595-90.34 29.461-118.6l-.202-10.74c3.716-.19 1.821-.44 5.692 1.96a7643 7643 0 0 0 24.329-78.29c3.857-12.63 10.703-37.08 15.738-48.21.352 10.24-12.295 32.27-8.62 38.62 5.348 2.13 22.195 14.15 24.064 13.79 4.197-8.51 12.148-37.88 16.659-41.23 3.436-6.53 8.119-21.07 10.621-28.36 22.618-65.42 53.696-127.48 84.906-189.14 18.849-37.24 38.222-77.748 60.42-113.132 9.262-2.887 13.8-8.593 21.7-13.589 48.271-30.526 98.384-57.283 150.652-80.303 7.066-3.112 14.852-6.365 22.151-8.86" style="stroke:none;stroke-width:1;stroke-dasharray:none;stroke-linecap:butt;stroke-dashoffset:0;stroke-linejoin:miter;stroke-miterlimit:4;fill:url(#SVGID_SVGID_Gradient7_44_52);fill-rule:nonzero;opacity:1" transform="translate(-805.7 -1197.84)"/></g><g transform="matrix(.5 0 0 .5 305.96 807.88)"><linearGradient id="SVGID_SVGID_Gradient6_45_53" x1="430.991" x2="545.801" y1="1518.01" y2="1331.33" gradientUnits="userSpaceOnUse"><stop offset="0%" style="stop-color:#2a8077;stop-opacity:1"/><stop offset="100%" style="stop-color:#74d8c9;stop-opacity:1"/></linearGradient><path d="M475.32 1395.96a7643 7643 0 0 0 24.329-78.29c3.857-12.63 10.703-37.08 15.738-48.21.352 10.24-12.295 32.27-8.62 38.62 5.348 2.13 22.195 14.15 24.064 13.79 4.197-8.51 12.148-37.88 16.659-41.23-12.536 41.37-31.081 85.96-42.929 127.18-11.219 39.03-23.309 96.12-29.117 136.22-8.544-2.06-23.519-14.91-35.075-20.7 7.916-30.64 26.595-90.34 29.461-118.6l-.202-10.74c3.716-.19 1.821-.44 5.692 1.96" style="stroke:none;stroke-width:1;stroke-dasharray:none;stroke-linecap:butt;stroke-dashoffset:0;stroke-linejoin:miter;stroke-miterlimit:4;fill:url(#SVGID_SVGID_Gradient6_45_53);fill-rule:nonzero;opacity:1" transform="translate(-493.93 -1406.75)"/></g><path d="M469.628 1394c3.716-.19 1.821-.44 5.692 1.96-.88 2.89-3.966 15.02-5.073 15.98l-.417-7.2z" style="stroke:none;stroke-width:1;stroke-dasharray:none;stroke-linecap:butt;stroke-dashoffset:0;stroke-linejoin:miter;stroke-miterlimit:4;fill:#164751;fill-rule:nonzero;opacity:1" transform="matrix(.5 0 0 .5 59.005 104.505)"/><g transform="matrix(.5 0 0 .5 368.39 588.14)"><linearGradient id="SVGID_SVGID_Gradient5_46_54" x1="369.025" x2="761.194" y1="1331.1" y2="682.821" gradientUnits="userSpaceOnUse"><stop offset="0%" style="stop-color:#0d5358;stop-opacity:1"/><stop offset="100%" style="stop-color:#4abfb2;stop-opacity:1"/></linearGradient><path d="M767.933 538.593c.868 64.277.993 132.227.329 196.528l.42 3.75.786.177 1.677-4.668 2.396-2.829c6.326.771 15.21-2.07 18.849 2.928 4.108-2.695 9.958-10.517 13.331-14.636 7.805-.323 13.864-4.25 17.693 2.556 1.567-1.496 3.1-2.125 5.049-3.023-21.638 28.844-44.804 57.007-66.55 85.852-88.849 117.851-157.705 252.502-218.514 386.652-4.15 9.15-27.573 71.04-28.012 77.58-5.035 11.13-11.881 35.58-15.738 48.21-7.97 26.14-16.08 52.24-24.329 78.29-3.871-2.4-1.976-2.15-5.692-1.96-.8-4.55-.665-10.89-.758-15.71-.431-22.21-2.525-44.17-5.754-66.18-11.514-78.45-27.107-156.37-43.105-234-3.333-16.18-6.819-32.57-10.916-48.55 25.457 32.04 48.368 69.39 72.222 102.78 10.03 14.04 19.196 28.83 30.164 42.25-.848-18.47-9.45-49.7-12.675-69.54-6.223-38.27-10.087-74.22-11.578-112.843-3.936-102.004 45.316-174.936 102.141-254.016 15.232-21.197 42.155-59.024 59.337-77.177 5.211-7.738 20.663-24.806 27.364-31.926 29.216-31.041 60.596-61.563 91.863-90.495" style="stroke:none;stroke-width:1;stroke-dasharray:none;stroke-linecap:butt;stroke-dashoffset:0;stroke-linejoin:miter;stroke-miterlimit:4;fill:url(#SVGID_SVGID_Gradient5_46_54);fill-rule:nonzero;opacity:1" transform="translate(-618.78 -967.28)"/></g><path d="M767.933 538.593c.868 64.277.993 132.227.329 196.528l-1.794.933c-7.348-3.394-15.48-9.518-22.539-13.9-13.755-8.541-27.551-17.883-41.502-26.05a350 350 0 0 0-38.484-19.405c-5.67-2.495-15.66-3.586-17.463-9.48 2.068-2.662 2.117-2.836 2.226-6.205 5.211-7.738 20.663-24.806 27.364-31.926 29.216-31.041 60.596-61.563 91.863-90.495" style="stroke:none;stroke-width:1;stroke-dasharray:none;stroke-linecap:butt;stroke-dashoffset:0;stroke-linejoin:miter;stroke-miterlimit:4;fill:#66cfba;fill-rule:nonzero;opacity:1" transform="matrix(.5 0 0 .5 59 104.5)"/><g transform="matrix(.5 0 0 .5 524.66 500.31)"><linearGradient id="SVGID_SVGID_Gradient4_47_55" x1="865.095" x2="997.836" y1="1007.17" y2="664.086" gradientUnits="userSpaceOnUse"><stop offset="0%" style="stop-color:#319d9a;stop-opacity:1"/><stop offset="100%" style="stop-color:#67d1bc;stop-opacity:1"/></linearGradient><path d="M931.753 633.238c-.845 5.058 1.976 9.877 6.745 12.314 4.487 2.293 10.105 3.643 14.874 5.461 4.906 1.871 10.076 3.33 14.988 5.252 12.944 5.064 25.21 11.783 38.17 16.819.38.145 1.61 4.067 1.72 4.465l1.58.95c.99-1.063 1.99-2.655 3.08-2.508 13.33 2.229 26.53 11.033 38.95 15.738 11.95 4.527 23.51 8.864 35.36 13.632 17.75 7.147 40.28 11.37 55.43 23.73 1.34 2.9 1.12 3.893 1.12 7.039l1.24 1.916c3.88-.204 11.61-1.612 14.19-.619-28.84 11.158-58.04 21.283-86.97 32.529a2203 2203 0 0 0-141.655 60.488c-6.218 2.898-28.946 12.778-32.635 16.812-7.299 2.495-15.085 5.748-22.151 8.86-52.268 23.02-102.381 49.777-150.652 80.303-7.9 4.996-12.438 10.702-21.7 13.589 6.339-13.416 25.522-44.256 33.48-57.073A1927 1927 0 0 1 860.704 718.76c21.969-27.863 47.259-59.377 71.049-85.522" style="stroke:none;stroke-width:1;stroke-dasharray:none;stroke-linecap:butt;stroke-dashoffset:0;stroke-linejoin:miter;stroke-miterlimit:4;fill:url(#SVGID_SVGID_Gradient4_47_55);fill-rule:nonzero;opacity:1" transform="translate(-931.32 -791.62)"/></g><path d="M931.753 633.238c9.57-11.428 76.537-82.044 85.597-87.408-.46 3.869-34.633 31.674-35.656 37.888 5.004 1.064 22.926 4.52 25.486 7.385.09 2.302-.04 2.892 1.38 4.738 1.7-.369 7.95-1.913 9.27-1.369 22.1 9.102 43.56 18.574 66.33 26.15 11.61 3.866 23.84 10.872 36.21 12.751 8.9 1.353 14.54 8.76 23.18 9.782 19.82 5.462 39.68 16.008 59.05 23.162 6.58 2.431 23.51 9.154 27.2 13.416-1.29 2.823-4.79 9.068-4.34 11.424 5.39-2.913 11.61-18.731 16.72-23.723.23-.225.37-2.272.5-2.457 1.69-3.431 11.95-21.459 13.56-22.513l.35 1.369c-10.45 21.026-31.22 58.684-48.34 75.011-3.3 3.156-42.39 17.142-49.05 18.583-2.58-.993-10.31.415-14.19.619l-1.24-1.916c0-3.146.22-4.139-1.12-7.039-15.15-12.36-37.68-16.583-55.43-23.73-11.85-4.768-23.41-9.105-35.36-13.632-12.42-4.705-25.62-13.509-38.95-15.738-1.09-.147-2.09 1.445-3.08 2.508l-1.58-.95c-.11-.398-1.34-4.32-1.72-4.465-12.96-5.036-25.226-11.755-38.17-16.819-4.912-1.922-10.082-3.381-14.988-5.252-4.769-1.818-10.387-3.168-14.874-5.461-4.769-2.437-7.59-7.256-6.745-12.314" style="stroke:none;stroke-width:1;stroke-dasharray:none;stroke-linecap:butt;stroke-dashoffset:0;stroke-linejoin:miter;stroke-miterlimit:4;fill:#66cfba;fill-rule:nonzero;opacity:1" transform="matrix(.5 0 0 .5 59 104.5)"/><g transform="matrix(.5 0 0 .5 505.02 388.24)"><linearGradient id="SVGID_SVGID_Gradient3_48_56" x1="842.467" x2="891.733" y1="747.454" y2="538.753" gradientUnits="userSpaceOnUse"><stop offset="0%" style="stop-color:#4ebdb0;stop-opacity:1"/><stop offset="100%" style="stop-color:#78ddc3;stop-opacity:1"/></linearGradient><path d="m933.819 400.495.299 1.856c-32.991 24.793-67.552 50.766-96.789 79.886-4.166 4.149-13.739 39.734-10.473 47.183l1.584.992.555-2.35c1.605-.84 4.159-2.559 6.057-1.534 16.084 8.695 33.112 15.409 49.626 22.883 21.853 9.89 37.535 20.912 62.681 19.602 3.44 1.765 3.619 2.337 5.797 5.41l.129.998c.208 1.518.113.932.493 2.554 11.968-4.938 51.762-50.458 59.152-52.847-.77 3.822-27.92 27.179-32.325 31.374-47.911 45.631-94.426 92.366-135.926 144.002-2.723 3.388-13.634 16.999-16.216 18.872-1.949.898-3.482 1.527-5.049 3.023-3.829-6.806-9.888-2.879-17.693-2.556-3.373 4.119-9.223 11.941-13.331 14.636-3.639-4.998-12.523-2.157-18.849-2.928l-2.396 2.829c3.428-16.985 12.227-44.396 17.125-64.03 15.509-61.511 27.305-128.856 47.083-188.632 2.853-8.622 88.804-74.382 98.466-81.223" style="stroke:none;stroke-width:1;stroke-dasharray:none;stroke-linecap:butt;stroke-dashoffset:0;stroke-linejoin:miter;stroke-miterlimit:4;fill:url(#SVGID_SVGID_Gradient3_48_56);fill-rule:nonzero;opacity:1" transform="translate(-892.04 -567.49)"/></g><g transform="matrix(.5 0 0 .5 718.84 698.99)"><linearGradient id="SVGID_SVGID_Gradient2_49_57" x1="1500.99" x2="1009.6" y1="1514.62" y2="926.364" gradientUnits="userSpaceOnUse"><stop offset="0%" style="stop-color:#ff740a;stop-opacity:1"/><stop offset="100%" style="stop-color:#ffc833;stop-opacity:1"/></linearGradient><path d="M1369.91 631.23c30.04-.096 29.56 18.791 37.88 40.893 5.53 14.672 17.43 31.55 27.27 43.65 67.49 83.032 180.63 115.391 235.18 210.426 36.83 59.222 44 133.131 27.94 200.211-16.8 70.18-58.16 125.64-119.16 163.07-.95-2.97-2.03-6.03-3.04-8.99 13.24-15.52 25.93-33.02 33.19-52.17 49.01-129.13-53.75-267.467-169.4-318.308-8.67-3.814-18.39-5.953-27.19-2.184-4.96 5.841-3.34 52.904-3.34 63.879l.04 93.213-.03 280.92c-.01 48.26 2.25 118.95-3.67 164.91-11.94 76.96-52.19 136.25-114.5 181.56-89.56 65.12-212.63 78.4-300.793 3.32-91.819-78.2-61.652-217.83 10.373-297.94 47.76-53.19 113.89-87.15 186.19-90.46a215.44 215.44 0 0 1 157.22 57.07l.02-475.556.04-152.312c0-25.885-.24-51.817.27-77.689.34-17.274 9.2-24.854 25.51-27.513" style="stroke:none;stroke-width:1;stroke-dasharray:none;stroke-linecap:butt;stroke-dashoffset:0;stroke-linejoin:miter;stroke-miterlimit:4;fill:url(#SVGID_SVGID_Gradient2_49_57);fill-rule:nonzero;opacity:1" transform="translate(-1319.68 -1188.98)"/></g><g transform="matrix(.5 0 0 .5 280.19 916.36)"><linearGradient id="SVGID_SVGID_Gradient1_50_58" x1="401.128" x2="478.173" y1="1710.65" y2="1540.37" gradientUnits="userSpaceOnUse"><stop offset="0%" style="stop-color:#114240;stop-opacity:1"/><stop offset="100%" style="stop-color:#2d7d74;stop-opacity:1"/></linearGradient><path d="M440.369 1523.34c11.556 5.79 26.531 18.64 35.075 20.7-.898 5.22-5.257 28.08-4.505 31.11 3.48-2.1 2.428-6.34 4.232-6.78-1.47 8.43-8.139 18.87-5.644 24.5-7.772 28.59-8.69 58.81-13.669 87.96-2.139 12.53-5.624 33.16-17.013 40.66-4.203 2.77-9.493 3.15-14.305 1.97-4.792-1.18-8.598-4.34-11.069-8.55-15.771-26.9 17.622-156.2 26.898-191.57" style="stroke:none;stroke-width:1;stroke-dasharray:none;stroke-linecap:butt;stroke-dashoffset:0;stroke-linejoin:miter;stroke-miterlimit:4;fill:url(#SVGID_SVGID_Gradient1_50_58);fill-rule:nonzero;opacity:1" transform="translate(-442.37 -1623.72)"/></g></svg>