<?xml version="1.0" encoding="UTF-8" standalone="no"?>
<svg width="1024" height="1024" viewBox="0 0 1024 1024" version="1.1" xmlns="http://www.w3.org/2000/svg" xmlns:xlink="http://www.w3.org/1999/xlink" style="fill-rule:evenodd;clip-rule:evenodd;stroke-linejoin:round;stroke-miterlimit:2;">
    <!-- Combined logo with slight top-left perspective -->
    <g transform="rotate(-3, 512, 512) skewX(-2) skewY(-1)">
        <!-- Layer 3 - Dark Teal Feather (back) -->
        <g transform="matrix(0.5,0,0,0.5,0,0)">
            <path d="M1459.66,136.408C1470.15,140.441 1479.08,146.862 1483.53,157.484C1502.67,203.157 1462.34,350.146 1442.88,398.058C1414.12,468.866 1379.634,531.231 1318.17,578.708C1244,636 1194.46,647.504 1175.42,655.572C1242,656 1312,630 1322,620C1248,838 1114.58,962.631 975.991,1058.26C950.334,1076.06 922.701,1090.83 893.646,1102.28C880.599,1107.45 858,1116 840,1122C875.885,1120.89 916.981,1115.44 952,1108C962.386,1105.79 992,1098 1010,1092C1006.98,1100.21 974.011,1134.79 965.909,1142.99C885.284,1224.62 778.355,1273.82 673.333,1316.35C660.675,1321.5 647.856,1326.24 634.896,1330.58C620.015,1335.48 600.27,1340.64 587.205,1348.48C573.399,1374.24 562.246,1413.5 551.338,1441.13C539.881,1470.16 528.005,1498.21 517.038,1527.5C512.046,1541.55 507.404,1555.73 503.117,1570.02C498.439,1585.78 493.896,1606.57 486.259,1621.13C484.823,1623.86 475.594,1633.16 472.847,1635.4C445.372,1657.82 417.197,1678.99 388.614,1699.97C369.847,1714.01 351.788,1728.86 332.495,1742.21C321.089,1750.1 308.156,1751.15 312.276,1732.73C315.003,1720.53 318.661,1708.68 322.357,1696.72C330.932,1669.42 340.265,1642.38 350.344,1615.6C359.131,1593.312 372.705,1556.688 391.14,1509.529C405.28,1473.68 419.731,1437.954 434.491,1402.355C449.429,1366.722 466.129,1328.221 484.607,1287.666C494.275,1266.457 500.368,1248.655 495.861,1220.93C493.282,1205.06 492.596,1185.96 490.973,1169.91C467.226,935.012 579.628,693.74 730.495,519.448C875.121,352.908 1062.88,229.488 1273.12,162.766C1314.18,150.098 1374.63,134.476 1417.48,131.41C1430.72,129.668 1447.17,131.609 1459.66,136.408Z" style="fill:url(#_Linear3);"/>
        </g>

        <!-- Layer 2 - Orange Music Note (middle) -->
        <g transform="matrix(0.5,0,0,0.5,0,0)">
            <path d="M1452.5,550.107C1463.01,550.162 1467.72,554.639 1473.6,563.042C1538.97,657.002 1621.37,738.535 1681.27,836.218C1741.58,934.571 1744.68,1047.96 1682.44,1146.12C1659.71,1181.98 1629.29,1218.06 1587.25,1231.44C1582.89,1232.83 1578.67,1232.37 1574.92,1229.89C1571,1224.47 1573.31,1216.49 1576.36,1211.49C1584.4,1198.68 1592.06,1184.39 1599.38,1171.35C1653.02,1075.72 1661.39,966.194 1590.83,875.846C1578.36,859.872 1497.45,787.769 1470.3,765.178C1458,834 1368.17,1347.17 1368.17,1347.17C1355.31,1419.97 1343.43,1482.33 1284.81,1534.18C1187.49,1620.27 1027.13,1619.48 938.456,1521.16C904.364,1483.36 882.346,1426.5 886.364,1375.19C902.793,1165.41 1172.55,1087.31 1309.38,1245.23C1312.28,1235.054 1408.15,683.434 1425.38,612.331C1429.62,594.83 1434.11,574.653 1440.71,557.908C1442.45,553.517 1448.41,551.6 1452.5,550.107Z" style="fill:rgb(250,149,3);fill-rule:nonzero;"/>
        </g>

        <!-- Layer 1 - Light Teal Feather (front) -->
        <g transform="matrix(0.469094,0,0,0.469094,17.858158,20.011877)">
            <path d="M1459.66,136.408C1470.15,140.441 1479.08,146.862 1483.53,157.484C1502.67,203.157 1462.34,350.146 1442.88,398.058C1414.12,468.866 1379.634,531.231 1318.17,578.708C1244,636 1194.46,647.504 1175.42,655.572C1242,656 1312,630 1322,620C1248,838 1114.58,962.631 975.991,1058.26C950.334,1076.06 922.701,1090.83 893.646,1102.28C880.599,1107.45 858,1116 840,1122C875.885,1120.89 916.981,1115.44 952,1108C962.386,1105.79 992,1098 1010,1092C1006.98,1100.21 974.011,1134.79 965.909,1142.99C885.284,1224.62 778.355,1273.82 673.333,1316.35C660.675,1321.5 647.856,1326.24 634.896,1330.58C620.015,1335.48 600.27,1340.64 587.205,1348.48C573.399,1374.24 562.246,1413.5 551.338,1441.13C539.881,1470.16 528.005,1498.21 517.038,1527.5C512.046,1541.55 507.404,1555.73 503.117,1570.02C498.439,1585.78 493.896,1606.57 486.259,1621.13C484.823,1623.86 475.594,1633.16 472.847,1635.4C445.372,1657.82 417.197,1678.99 388.614,1699.97C369.847,1714.01 351.788,1728.86 332.495,1742.21C321.089,1750.1 308.156,1751.15 312.276,1732.73C315.003,1720.53 318.661,1708.68 322.357,1696.72C330.932,1669.42 340.265,1642.38 350.344,1615.6C359.131,1593.312 372.705,1556.688 391.14,1509.529C405.28,1473.68 419.731,1437.954 434.491,1402.355C449.429,1366.722 466.129,1328.221 484.607,1287.666C652.309,919.605 968.661,366.212 1459.66,136.408Z" style="fill:url(#_Linear1);"/>
        </g>
    </g>

    <defs>
        <linearGradient id="_Linear1" x1="0" y1="0" x2="1" y2="0" gradientUnits="userSpaceOnUse" gradientTransform="matrix(1148.167033,-1611.188372,2205.429069,1571.635567,311.492967,1747.596372)">
            <stop offset="0" style="stop-color:rgb(67,157,158);stop-opacity:1"/>
            <stop offset="0.45" style="stop-color:rgb(96,175,176);stop-opacity:1"/>
            <stop offset="1" style="stop-color:rgb(168,218,220);stop-opacity:1"/>
        </linearGradient>
        <linearGradient id="_Linear3" x1="0" y1="0" x2="1" y2="0" gradientUnits="userSpaceOnUse" gradientTransform="matrix(1146,-1614,2216.993928,1574.148105,310,1748)">
            <stop offset="0" style="stop-color:rgb(0,36,37);stop-opacity:1"/>
            <stop offset="0.45" style="stop-color:rgb(32,67,68);stop-opacity:1"/>
            <stop offset="1" style="stop-color:rgb(111,141,142);stop-opacity:1"/>
        </linearGradient>
    </defs>
</svg>
