<?xml version="1.0" encoding="UTF-8" standalone="no"?>
<!DOCTYPE svg PUBLIC "-//W3C//DTD SVG 1.1//EN" "http://www.w3.org/Graphics/SVG/1.1/DTD/svg11.dtd">
<svg width="100%" height="100%" viewBox="0 0 36 74" version="1.1" xmlns="http://www.w3.org/2000/svg" xmlns:xlink="http://www.w3.org/1999/xlink" xml:space="preserve" xmlns:serif="http://www.serif.com/" style="fill-rule:evenodd;clip-rule:evenodd;stroke-linejoin:round;stroke-miterlimit:2;">
    <g transform="matrix(1,0,0,1,-541.28,-30.72525)">
        <g>
            <g transform="matrix(0.5,0,0,0.5,0,0)">
                <path d="M1124.35,155.949C1125.4,161.693 1127.09,169.666 1127.46,175.25C1127.08,181.533 1126.89,183.564 1123.32,188.845C1119.66,193.081 1115.96,197.478 1112.21,201.617C1090.07,216.359 1075.98,206.569 1087,180.515C1091.77,173.275 1093.38,171.518 1100.86,167.193C1105.84,163.612 1111.69,165.342 1117.84,163.157C1120.47,161.529 1122.4,158.478 1124.35,155.949Z" style="fill:rgb(245,192,133);fill-rule:nonzero;"/>
            </g>
            <g transform="matrix(0.5,0,0,0.5,0,0)">
                <path d="M1112.21,201.617C1090.07,216.359 1075.98,206.569 1087,180.515C1088.63,184.762 1087.75,184.321 1091.46,186.498C1094.84,188.486 1105.43,190.619 1106.85,193.461C1109.06,197.914 1108.01,197.965 1112.21,201.617Z" style="fill:rgb(245,195,141);fill-rule:nonzero;"/>
            </g>
            <g transform="matrix(0.5,0,0,0.5,0,0)">
                <path d="M1124.35,155.949C1125.4,161.693 1127.09,169.666 1127.46,175.25C1127.08,181.533 1126.89,183.564 1123.32,188.845C1119.89,184.506 1120.85,184.371 1116.43,182.621C1112.46,182.382 1111.54,181.309 1110.39,177.914C1111.13,174.955 1112.18,172.63 1111.09,169.943L1109.43,169.29C1106.88,170.861 1106.53,171.32 1103.56,171.909C1102.75,169.254 1102.98,168.787 1100.86,167.193C1105.84,163.612 1111.69,165.342 1117.84,163.157C1120.47,161.529 1122.4,158.478 1124.35,155.949Z" style="fill:rgb(245,195,141);fill-rule:nonzero;"/>
            </g>
            <g transform="matrix(0.5,0,0,0.5,0,0)">
                <path d="M1116.43,182.621L1117.12,174.11L1118.5,173.103C1122.16,174.332 1123.62,174.59 1127.46,175.25C1127.08,181.533 1126.89,183.564 1123.32,188.845C1119.89,184.506 1120.85,184.371 1116.43,182.621Z" style="fill:rgb(251,207,145);fill-rule:nonzero;"/>
            </g>
            <g transform="matrix(0.5,0,0,0.5,0,0)">
                <path d="M1082.56,61.45C1104.41,72.588 1151.64,82.663 1153.98,114.479C1154.17,117.018 1153.7,121.705 1151.9,123.67C1148.8,120.58 1147.59,112.714 1143.24,106.621C1133.07,92.383 1118.8,91.615 1102.95,88.909L1106.78,100.949L1098.72,103.243C1093.78,87.94 1087.1,75.549 1082.56,61.45Z" style="fill:rgb(245,195,142);fill-rule:nonzero;"/>
            </g>
            <g transform="matrix(0.5,0,0,0.5,0,0)">
                <path d="M1106.78,100.949C1109.62,110.303 1112.32,119.002 1115.58,128.251L1109.6,134.895C1106.62,124.135 1102.98,113.565 1098.72,103.243L1106.78,100.949Z" style="fill:rgb(245,195,141);fill-rule:nonzero;"/>
            </g>
            <g transform="matrix(0.5,0,0,0.5,0,0)">
                <path d="M1115.58,128.251C1118.7,137.519 1121.82,146.483 1124.35,155.949C1122.4,158.478 1120.47,161.529 1117.84,163.157C1115.5,153.18 1112.71,144.615 1109.6,134.895L1115.58,128.251Z" style="fill:rgb(245,195,142);fill-rule:nonzero;"/>
            </g>
        </g>
    </g>
</svg>
